<svg xmlns="http://www.w3.org/2000/svg" width="15" height="15" viewBox="0 0 15 15" fill="none">
                      <path d="M14.841 5.60908C14.7837 5.41729 14.6785 5.2468 14.5372 5.11691C14.396 4.98701 14.2242 4.90288 14.0415 4.87402L10.2636 4.27449L8.57584 0.548342C8.48399 0.381099 8.35405 0.242695 8.19869 0.1466C8.04334 0.0505045 7.86785 0 7.68931 0C7.51078 0 7.33529 0.0505045 7.17993 0.1466C7.02457 0.242695 6.89464 0.381099 6.80278 0.548342L5.11502 4.27449L1.34578 4.87402C1.16336 4.90319 0.992041 4.98749 0.85115 5.11738C0.71026 5.24728 0.605407 5.4176 0.548426 5.60914C0.491445 5.80068 0.484604 6.00581 0.528674 6.20137C0.572744 6.39693 0.665972 6.57515 0.797836 6.71591L3.53151 9.62603L2.88708 13.7324C2.85576 13.9313 2.87605 14.1357 2.94564 14.3226C3.01523 14.5096 3.13134 14.6714 3.28082 14.79C3.4303 14.9085 3.60718 14.9789 3.79142 14.9933C3.97566 15.0077 4.1599 14.9654 4.32327 14.8712L7.68931 12.9324L11.0657 14.8712C11.2075 14.9529 11.3654 14.9955 11.5258 14.9955C11.7347 14.9948 11.9383 14.9231 12.1082 14.7903C12.2574 14.6714 12.3733 14.5095 12.4428 14.3226C12.5124 14.1357 12.5329 13.9313 12.5019 13.7324L11.8583 9.62603L14.592 6.71591C14.724 6.57522 14.8172 6.39698 14.8612 6.20136C14.9052 6.00574 14.8982 5.80057 14.841 5.60908Z" fill="#FF9900"/>
                    </svg>